<?xml version="1.0" encoding="UTF-8"?>
<!DOCTYPE score-partwise PUBLIC "-//Recordare//DTD MusicXML 4.0.3 Partwise//EN" "http://www.musicxml.org/dtds/partwise.dtd">
<score-partwise version="4.0.3">
  <movement-title>Give Me the Roses While I Live</movement-title>
  <identification>
    <creator type="composer">Cornelius &amp; Raw:</creator>
    <encoding>
      <software>Audiveris 5.5.0</software>
      <supports type="yes" element="print" attribute="new-system" value="yes"></supports>
      <supports type="yes" element="print" attribute="new-page" value="yes"></supports>
      <supports type="yes" element="accidental"></supports>
      <supports type="yes" element="beam"></supports>
      <supports type="yes" element="stem"></supports>
      <software>ProxyMusic 4.0.3</software>
      <encoding-date>2025-04-10</encoding-date>
    </encoding>
    <source>C:\Users\marty\Downloads\IMG_1954.jpg</source>
    <miscellaneous>
      <miscellaneous-field name="source-file">C:\Users\marty\Downloads\IMG_1954.jpg</miscellaneous-field>
      <miscellaneous-field name="source-sheet-1">1 2 3 4</miscellaneous-field>
    </miscellaneous>
  </identification>
  <defaults>
    <scaling>
      <millimeters>4.0640</millimeters>
      <tenths>40</tenths>
    </scaling>
    <page-layout>
      <page-height>1493</page-height>
      <page-width>1160</page-width>
      <page-margins type="both">
        <left-margin>80</left-margin>
        <right-margin>80</right-margin>
        <top-margin>80</top-margin>
        <bottom-margin>80</bottom-margin>
      </page-margins>
    </page-layout>
    <lyric-font font-family="Sans Serif" font-size="10"></lyric-font>
  </defaults>
  <credit page="1">
    <credit-words default-x="337" default-y="1310" font-family="serif" font-size="11">Give Me the Roses While I Live</credit-words>
  </credit>
  <credit page="1">
    <credit-type>composer</credit-type>
    <credit-words default-x="885" default-y="1283" font-family="serif" font-size="5">Cornelius &amp; Raw:</credit-words>
  </credit>
  <credit page="1">
    <credit-words default-x="988" default-y="1228" font-family="serif" font-size="6">‘r</credit-words>
  </credit>
  <credit page="1">
    <credit-words default-x="138" default-y="1234" font-family="serif" font-size="6">l</credit-words>
  </credit>
  <credit page="1">
    <credit-words default-x="80" default-y="1041" font-family="sans-serif" font-size="3" font-weight="bold">i</credit-words>
  </credit>
  <credit page="1">
    <credit-words default-x="80" default-y="990" font-family="sans-serif" font-size="6">.</credit-words>
  </credit>
  <credit page="1">
    <credit-words default-x="640" default-y="982" font-family="serif" font-size="7">D,</credit-words>
  </credit>
  <credit page="1">
    <credit-words default-x="142" default-y="703" font-family="serif" font-size="6">17</credit-words>
  </credit>
  <credit page="1">
    <credit-words default-x="134" default-y="458" font-family="sans-serif" font-style="italic" font-size="5">5</credit-words>
  </credit>
  <credit page="1">
    <credit-words default-x="212" default-y="456" font-family="sans-serif" font-size="5">.</credit-words>
  </credit>
  <part-list>
    <score-part id="P1">
      <part-name>Voice</part-name>
      <part-abbreviation>Voice</part-abbreviation>
      <score-instrument id="P1-I1">
        <instrument-name>Voice Oohs</instrument-name>
      </score-instrument>
      <midi-instrument id="P1-I1">
        <midi-channel>1</midi-channel>
        <midi-program>54</midi-program>
        <volume>78</volume>
      </midi-instrument>
    </score-part>
  </part-list>
  <!--= = = = = = = = = = = = = = = = = = = = = = = = = = = = =-->
  <part id="P1">
    <!--=======================================================-->
    <measure number="1" width="237">
      <print>
        <system-layout>
          <system-margins>
            <left-margin>68</left-margin>
            <right-margin>73</right-margin>
          </system-margins>
          <top-system-distance>183</top-system-distance>
        </system-layout>
        <measure-numbering>system</measure-numbering>
      </print>
      <attributes>
        <divisions>2</divisions>
        <key>
          <fifths>1</fifths>
        </key>
        <time>
          <beats>3</beats>
          <beat-type>4</beat-type>
        </time>
        <clef>
          <sign>G</sign>
          <line>2</line>
        </clef>
        <staff-details print-object="yes"></staff-details>
      </attributes>
      <direction placement="above">
        <direction-type>
          <words default-y="42" relative-x="-100" font-family="serif" font-size="5">CDLTrﬂc/(58</words>
        </direction-type>
      </direction>
      <harmony default-y="8" relative-x="-2" font-size="6.24" placement="above">
        <root>
          <root-step>G</root-step>
        </root>
        <kind text="">major</kind>
      </harmony>
      <note default-x="104">
        <pitch>
          <step>B</step>
          <octave>4</octave>
        </pitch>
        <duration>2</duration>
        <voice>1</voice>
        <type>quarter</type>
        <stem default-y="-50">down</stem>
      </note>
      <note default-x="155">
        <pitch>
          <step>A</step>
          <octave>4</octave>
        </pitch>
        <duration>2</duration>
        <voice>1</voice>
        <type>quarter</type>
        <stem default-y="10">up</stem>
      </note>
      <note default-x="204">
        <pitch>
          <step>B</step>
          <octave>4</octave>
        </pitch>
        <duration>2</duration>
        <voice>1</voice>
        <type>quarter</type>
        <stem default-y="-50">down</stem>
      </note>
    </measure>
    <!--=======================================================-->
    <measure number="2" width="92">
      <note default-x="18">
        <pitch>
          <step>D</step>
          <octave>4</octave>
        </pitch>
        <duration>4</duration>
        <voice>1</voice>
        <type>half</type>
        <stem default-y="-8">up</stem>
      </note>
      <note default-x="62">
        <pitch>
          <step>E</step>
          <octave>4</octave>
        </pitch>
        <duration>2</duration>
        <voice>1</voice>
        <type>quarter</type>
        <stem default-y="-4">up</stem>
      </note>
    </measure>
    <!--=======================================================-->
    <measure number="3" width="107">
      <note default-x="25">
        <pitch>
          <step>G</step>
          <octave>4</octave>
        </pitch>
        <duration>4</duration>
        <voice>1</voice>
        <type>half</type>
        <stem default-y="5">up</stem>
      </note>
      <note default-x="79">
        <pitch>
          <step>A</step>
          <octave>4</octave>
        </pitch>
        <duration>2</duration>
        <voice>1</voice>
        <type>quarter</type>
        <stem default-y="10">up</stem>
      </note>
    </measure>
    <!--=======================================================-->
    <measure number="4" width="59">
      <note default-x="25">
        <pitch>
          <step>B</step>
          <octave>4</octave>
        </pitch>
        <duration>4</duration>
        <voice>1</voice>
        <type>half</type>
        <stem default-y="-51">down</stem>
      </note>
    </measure>
    <!--=======================================================-->
    <measure number="5" width="156">
      <note default-x="22">
        <pitch>
          <step>A</step>
          <octave>4</octave>
        </pitch>
        <duration>2</duration>
        <voice>1</voice>
        <type>quarter</type>
        <stem default-y="10">up</stem>
      </note>
      <note default-x="70">
        <pitch>
          <step>B</step>
          <octave>4</octave>
        </pitch>
        <duration>2</duration>
        <voice>1</voice>
        <type>quarter</type>
        <stem default-y="-51">down</stem>
      </note>
      <note default-x="119">
        <pitch>
          <step>C</step>
          <octave>5</octave>
        </pitch>
        <duration>2</duration>
        <voice>1</voice>
        <type>quarter</type>
        <stem default-y="-46">down</stem>
      </note>
    </measure>
    <!--=======================================================-->
    <measure number="6" width="92">
      <note default-x="28">
        <pitch>
          <step>B</step>
          <octave>4</octave>
        </pitch>
        <duration>4</duration>
        <voice>1</voice>
        <type>half</type>
        <stem default-y="-51">down</stem>
      </note>
      <note default-x="69">
        <pitch>
          <step>A</step>
          <octave>4</octave>
        </pitch>
        <duration>2</duration>
        <voice>1</voice>
        <type>quarter</type>
        <stem default-y="10">up</stem>
      </note>
    </measure>
    <!--=======================================================-->
    <measure number="7" width="115">
      <note default-x="23">
        <pitch>
          <step>G</step>
          <octave>4</octave>
        </pitch>
        <duration>6</duration>
        <voice>1</voice>
        <type>half</type>
        <dot/>
        <stem default-y="5">up</stem>
        <notations>
          <slur type="start" number="1" placement="below" default-x="21" default-y="-30" bezier-x="4" bezier-y="-2"></slur>
        </notations>
      </note>
      <backup>
        <duration>6</duration>
      </backup>
    </measure>
    <!--=======================================================-->
    <measure number="8" width="190">
      <print new-system="yes">
        <system-layout>
          <system-margins>
            <left-margin>54</left-margin>
            <right-margin>70</right-margin>
          </system-margins>
          <system-distance>227</system-distance>
        </system-layout>
      </print>
      <attributes>
        <staff-details print-object="yes"></staff-details>
      </attributes>
      <note default-x="86">
        <pitch>
          <step>B</step>
          <octave>4</octave>
        </pitch>
        <duration>2</duration>
        <voice>1</voice>
        <type>quarter</type>
        <stem default-y="-51">down</stem>
        <notations>
          <articulations>
            <staccato placement="below" default-y="-67"></staccato>
            <staccato placement="below" default-y="-66"></staccato>
          </articulations>
        </notations>
        <lyric number="2" placement="below" default-y="-91">
          <syllabic>single</syllabic>
          <text>Let</text>
        </lyric>
        <lyric number="3" placement="below" default-y="-110">
          <syllabic>single</syllabic>
          <text>Let</text>
        </lyric>
      </note>
      <note default-x="121">
        <pitch>
          <step>A</step>
          <octave>4</octave>
        </pitch>
        <duration>2</duration>
        <voice>1</voice>
        <type>quarter</type>
        <stem default-y="10">up</stem>
        <lyric number="1" placement="below" default-y="-72">
          <syllabic>end</syllabic>
          <text>es</text>
        </lyric>
        <lyric number="2" placement="below" default-y="-91">
          <syllabic>single</syllabic>
          <text>us</text>
        </lyric>
        <lyric number="3" placement="below" default-y="-110">
          <syllabic>single</syllabic>
          <text>us</text>
        </lyric>
      </note>
      <note default-x="155">
        <pitch>
          <step>B</step>
          <octave>4</octave>
        </pitch>
        <duration>2</duration>
        <voice>1</voice>
        <type>quarter</type>
        <stem default-y="-51">down</stem>
        <notations>
          <articulations>
            <staccato placement="below" default-y="-67"></staccato>
          </articulations>
        </notations>
        <lyric number="2" placement="below" default-y="-91">
          <syllabic>single</syllabic>
          <text>not.</text>
        </lyric>
        <lyric number="3" placement="below" default-y="-110">
          <syllabic>begin</syllabic>
          <text>for</text>
        </lyric>
      </note>
    </measure>
    <!--=======================================================-->
    <measure number="9" width="123">
      <note default-x="22">
        <pitch>
          <step>D</step>
          <octave>4</octave>
        </pitch>
        <duration>4</duration>
        <voice>1</voice>
        <type>half</type>
        <stem default-y="-9">up</stem>
        <notations>
          <articulations>
            <staccato placement="below" default-y="-67"></staccato>
          </articulations>
        </notations>
        <lyric number="2" placement="below" default-y="-92">
          <syllabic>single</syllabic>
          <text>‘wait</text>
        </lyric>
        <lyric number="3" placement="below" default-y="-110">
          <syllabic>end</syllabic>
          <text>give</text>
        </lyric>
      </note>
      <note default-x="72">
        <pitch>
          <step>E</step>
          <octave>4</octave>
        </pitch>
        <duration>2</duration>
        <voice>1</voice>
        <type>quarter</type>
        <stem default-y="-4">up</stem>
        <notations>
          <articulations>
            <staccato placement="below" default-y="-67"></staccato>
          </articulations>
        </notations>
        <lyric number="2" placement="below" default-y="-92">
          <syllabic>single</syllabic>
          <text>’til</text>
        </lyric>
        <lyric number="3" placement="below" default-y="-110">
          <syllabic>single</syllabic>
          <text>them</text>
        </lyric>
      </note>
    </measure>
    <!--=======================================================-->
    <measure number="10" width="108">
      <note default-x="18">
        <pitch>
          <step>G</step>
          <octave>4</octave>
        </pitch>
        <duration>4</duration>
        <voice>1</voice>
        <type>half</type>
        <stem default-y="5">up</stem>
        <lyric number="1" placement="below" default-y="-72">
          <syllabic>end</syllabic>
          <text>nar</text>
        </lyric>
        <lyric number="2" placement="below" default-y="-92">
          <syllabic>single</syllabic>
          <text>souls</text>
        </lyric>
        <lyric number="3" placement="below" default-y="-111">
          <syllabic>single</syllabic>
          <text>‘ere</text>
        </lyric>
      </note>
      <note default-x="67">
        <pitch>
          <step>A</step>
          <octave>4</octave>
        </pitch>
        <duration>2</duration>
        <voice>1</voice>
        <type>quarter</type>
        <stem default-y="10">up</stem>
        <lyric number="1" placement="below" default-y="-72">
          <syllabic>single</syllabic>
          <text>raw</text>
        </lyric>
        <lyric number="2" placement="below" default-y="-92">
          <syllabic>single</syllabic>
          <text>have</text>
        </lyric>
        <lyric number="3" placement="below" default-y="-111">
          <syllabic>single</syllabic>
          <text>they</text>
        </lyric>
      </note>
    </measure>
    <!--=======================================================-->
    <measure number="11" width="79">
      <note default-x="22">
        <pitch>
          <step>B</step>
          <octave>4</octave>
        </pitch>
        <duration>6</duration>
        <voice>1</voice>
        <type>half</type>
        <dot/>
        <stem default-y="-52">down</stem>
        <lyric number="1" placement="below" default-y="-73">
          <syllabic>single</syllabic>
          <text>bed,</text>
        </lyric>
        <lyric number="2" placement="below" default-y="-91">
          <syllabic>begin</syllabic>
          <text>fled,</text>
        </lyric>
        <lyric number="3" placement="below" default-y="-110">
          <syllabic>single</syllabic>
          <text>die,</text>
        </lyric>
      </note>
    </measure>
    <!--=======================================================-->
    <measure number="12" width="160">
      <direction placement="below">
        <direction-type>
          <pedal type="start" line="no" default-x="1" default-y="-112" halign="left"></pedal>
        </direction-type>
        <sound damper-pedal="yes"></sound>
      </direction>
      <note default-x="17">
        <pitch>
          <step>A</step>
          <octave>4</octave>
        </pitch>
        <duration>2</duration>
        <voice>1</voice>
        <type>quarter</type>
        <stem default-y="10">up</stem>
        <lyric number="1" placement="below" default-y="-72">
          <syllabic>begin</syllabic>
          <text>0</text>
        </lyric>
      </note>
      <note default-x="68">
        <pitch>
          <step>B</step>
          <octave>4</octave>
        </pitch>
        <duration>2</duration>
        <voice>1</voice>
        <type>quarter</type>
        <stem default-y="-52">down</stem>
        <notations>
          <articulations>
            <staccato placement="below" default-y="-68"></staccato>
            <staccato placement="below" default-y="-68"></staccato>
            <staccato placement="below" default-y="-68"></staccato>
          </articulations>
        </notations>
        <lyric number="2" placement="below" default-y="-93">
          <syllabic>middle</syllabic>
          <text>er</text>
        </lyric>
        <lyric number="3" placement="below" default-y="-112">
          <syllabic>single</syllabic>
          <text>should</text>
        </lyric>
      </note>
      <note default-x="123">
        <pitch>
          <step>C</step>
          <octave>5</octave>
        </pitch>
        <duration>2</duration>
        <voice>1</voice>
        <type>quarter</type>
        <stem default-y="-48">down</stem>
        <notations>
          <articulations>
            <staccato placement="below" default-y="-68"></staccato>
          </articulations>
        </notations>
        <lyric number="2" placement="below" default-y="-93">
          <syllabic>end</syllabic>
          <text>ous</text>
        </lyric>
        <lyric number="3" placement="below" default-y="-112">
          <syllabic>single</syllabic>
          <text>the</text>
        </lyric>
      </note>
    </measure>
    <!--=======================================================-->
    <measure number="13" width="98">
      <note default-x="27">
        <pitch>
          <step>B</step>
          <octave>4</octave>
        </pitch>
        <duration>4</duration>
        <voice>1</voice>
        <type>half</type>
        <stem default-y="-52">down</stem>
        <lyric number="1" placement="below" default-y="-73">
          <syllabic>middle</syllabic>
          <text>sleep</text>
        </lyric>
        <lyric number="2" placement="below" default-y="-92">
          <syllabic>single</syllabic>
          <text>friends</text>
        </lyric>
        <lyric number="3" placement="below" default-y="-112">
          <syllabic>single</syllabic>
          <text>words</text>
        </lyric>
      </note>
      <note default-x="67">
        <pitch>
          <step>A</step>
          <octave>4</octave>
        </pitch>
        <duration>2</duration>
        <voice>1</voice>
        <type>quarter</type>
        <stem default-y="10">up</stem>
        <lyric number="1" placement="below" default-y="-73">
          <syllabic>end</syllabic>
          <text>ing</text>
        </lyric>
        <lyric number="2" placement="below" default-y="-93">
          <syllabic>single</syllabic>
          <text>to</text>
        </lyric>
        <lyric number="3" placement="below" default-y="-112">
          <syllabic>single</syllabic>
          <text>he</text>
        </lyric>
      </note>
    </measure>
    <!--=======================================================-->
    <measure number="14" width="118">
      <note default-x="24">
        <pitch>
          <step>G</step>
          <octave>4</octave>
        </pitch>
        <duration>6</duration>
        <voice>1</voice>
        <type>half</type>
        <dot/>
        <stem default-y="6">up</stem>
        <notations>
          <slur type="start" number="2" placement="below" default-x="22" default-y="-31" bezier-x="3" bezier-y="-2"></slur>
        </notations>
        <lyric number="3" placement="below" default-y="-113">
          <syllabic>single</syllabic>
          <text>sald.</text>
        </lyric>
      </note>
      <backup>
        <duration>6</duration>
      </backup>
      <barline location="right">
        <bar-style>light-light</bar-style>
      </barline>
    </measure>
    <!--=======================================================-->
    <measure number="15" width="239">
      <print new-system="yes">
        <system-layout>
          <system-margins>
            <left-margin>38</left-margin>
            <right-margin>68</right-margin>
          </system-margins>
          <system-distance>242</system-distance>
        </system-layout>
      </print>
      <attributes>
        <key>
          <fifths>0</fifths>
        </key>
        <staff-details print-object="yes"></staff-details>
      </attributes>
      <barline location="left">
        <bar-style>regular</bar-style>
        <ending number="1" type="start" end-length="44" default-y="155"></ending>
      </barline>
      <note default-x="90">
        <pitch>
          <step>C</step>
          <octave>5</octave>
        </pitch>
        <duration>2</duration>
        <voice>1</voice>
        <type>quarter</type>
        <stem default-y="-48">down</stem>
      </note>
      <note default-x="144">
        <pitch>
          <step>C</step>
          <octave>5</octave>
        </pitch>
        <duration>2</duration>
        <voice>1</voice>
        <type>quarter</type>
        <stem default-y="-48">down</stem>
        <lyric number="1" placement="below" default-y="-74">
          <syllabic>single</syllabic>
          <text>me</text>
        </lyric>
      </note>
      <note default-x="193">
        <pitch>
          <step>C</step>
          <octave>5</octave>
        </pitch>
        <duration>2</duration>
        <voice>1</voice>
        <type>quarter</type>
        <stem default-y="-48">down</stem>
        <notations>
          <articulations>
            <staccato placement="below" default-y="-70"></staccato>
          </articulations>
        </notations>
      </note>
    </measure>
    <!--=======================================================-->
    <measure number="16" width="113">
      <note default-x="19">
        <pitch>
          <step>G</step>
          <octave>4</octave>
        </pitch>
        <duration>4</duration>
        <voice>1</voice>
        <type>half</type>
        <stem default-y="5">up</stem>
        <lyric number="1" placement="below" default-y="-74">
          <syllabic>begin</syllabic>
          <text>res</text>
        </lyric>
      </note>
      <note default-x="66">
        <pitch>
          <step>A</step>
          <octave>4</octave>
        </pitch>
        <duration>2</duration>
        <voice>1</voice>
        <type>quarter</type>
        <stem default-y="10">up</stem>
        <lyric number="1" placement="below" default-y="-74">
          <syllabic>end</syllabic>
          <text>es</text>
        </lyric>
      </note>
    </measure>
    <!--=======================================================-->
    <measure number="17" width="130">
      <note default-x="25">
        <pitch>
          <step>B</step>
          <octave>4</octave>
        </pitch>
        <duration>4</duration>
        <voice>1</voice>
        <type>half</type>
        <stem default-y="-53">down</stem>
        <lyric number="1" placement="below" default-y="-74">
          <syllabic>single</syllabic>
          <text>while</text>
        </lyric>
      </note>
      <note default-x="78">
        <pitch>
          <step>A</step>
          <octave>4</octave>
        </pitch>
        <duration>2</duration>
        <voice>1</voice>
        <type>quarter</type>
        <stem default-y="11">up</stem>
        <lyric number="1" placement="below" default-y="-75">
          <syllabic>single</syllabic>
          <text>I</text>
        </lyric>
      </note>
    </measure>
    <!--=======================================================-->
    <measure number="18" width="68">
      <note default-x="21">
        <pitch>
          <step>G</step>
          <octave>4</octave>
        </pitch>
        <duration>4</duration>
        <voice>1</voice>
        <type>half</type>
        <stem default-y="5">up</stem>
        <lyric number="1" placement="below" default-y="-75">
          <syllabic>single</syllabic>
          <text>live,</text>
        </lyric>
      </note>
    </measure>
    <!--=======================================================-->
    <measure number="19" width="130">
      <note default-x="20">
        <pitch>
          <step>B</step>
          <octave>4</octave>
        </pitch>
        <duration>2</duration>
        <voice>1</voice>
        <type>quarter</type>
        <stem default-y="-53">down</stem>
        <notations>
          <articulations>
            <caesura default-x="53" default-y="-63" placement="below"></caesura>
          </articulations>
        </notations>
      </note>
      <note default-x="57">
        <pitch>
          <step>A</step>
          <octave>4</octave>
        </pitch>
        <duration>2</duration>
        <voice>1</voice>
        <type>quarter</type>
        <stem default-y="11">up</stem>
      </note>
      <note default-x="92">
        <pitch>
          <step>G</step>
          <octave>4</octave>
        </pitch>
        <duration>2</duration>
        <voice>1</voice>
        <type>quarter</type>
        <stem default-y="6">up</stem>
        <lyric number="1" placement="below" default-y="-75">
          <syllabic>single</syllabic>
          <text>to</text>
        </lyric>
      </note>
      <backup>
        <duration>6</duration>
      </backup>
      <note default-x="14">
        <rest>
          <display-step>G</display-step>
          <display-octave>3</display-octave>
        </rest>
        <duration>1</duration>
        <voice>2</voice>
        <type>eighth</type>
      </note>
    </measure>
    <!--=======================================================-->
    <measure number="20" width="105">
      <note default-x="14">
        <pitch>
          <step>G</step>
          <octave>4</octave>
        </pitch>
        <duration>2</duration>
        <voice>1</voice>
        <type>quarter</type>
        <stem default-y="6">up</stem>
        <notations>
          <slur type="start" number="3" placement="below" default-x="9" default-y="-34" bezier-x="9" bezier-y="-5"></slur>
        </notations>
        <lyric number="1" placement="below" default-y="-76">
          <syllabic>single</syllabic>
          <text>cheer</text>
        </lyric>
      </note>
      <note default-x="49">
        <pitch>
          <step>A</step>
          <octave>4</octave>
        </pitch>
        <duration>2</duration>
        <voice>1</voice>
        <type>quarter</type>
        <stem default-y="11">up</stem>
        <notations>
          <slur type="stop" number="3" default-x="2" default-y="-30" bezier-x="-7" bezier-y="-8"></slur>
        </notations>
      </note>
      <note default-x="82">
        <pitch>
          <step>B</step>
          <octave>4</octave>
        </pitch>
        <duration>2</duration>
        <voice>1</voice>
        <type>quarter</type>
        <stem default-y="-55">down</stem>
        <notations>
          <articulations>
            <staccato placement="below" default-y="-71"></staccato>
          </articulations>
        </notations>
      </note>
    </measure>
    <!--=======================================================-->
    <measure number="21" width="58">
      <note default-x="21">
        <pitch>
          <step>A</step>
          <octave>4</octave>
        </pitch>
        <duration>4</duration>
        <voice>1</voice>
        <type>half</type>
        <stem default-y="10">up</stem>
        <lyric number="1" placement="below" default-y="-77">
          <syllabic>begin</syllabic>
          <text>on.</text>
        </lyric>
      </note>
      <barline location="right">
        <bar-style>regular</bar-style>
        <ending number="1" type="discontinue" default-y="159"></ending>
      </barline>
    </measure>
    <!--=======================================================-->
    <measure number="22" width="52">
      <note default-x="18">
        <pitch>
          <step>A</step>
          <octave>4</octave>
        </pitch>
        <duration>6</duration>
        <voice>1</voice>
        <type>half</type>
        <dot/>
        <stem default-y="10">up</stem>
      </note>
    </measure>
    <!--=======================================================-->
    <measure number="23" width="232">
      <print new-system="yes">
        <system-layout>
          <system-margins>
            <left-margin>21</left-margin>
            <right-margin>68</right-margin>
          </system-margins>
          <system-distance>207</system-distance>
        </system-layout>
      </print>
      <attributes>
        <key>
          <fifths>1</fifths>
        </key>
        <staff-details print-object="yes"></staff-details>
      </attributes>
      <note default-x="90">
        <pitch>
          <step>B</step>
          <octave>4</octave>
        </pitch>
        <duration>2</duration>
        <voice>1</voice>
        <type>quarter</type>
        <stem default-y="-56">down</stem>
        <notations>
          <articulations>
            <staccato placement="below" default-y="-73"></staccato>
          </articulations>
        </notations>
      </note>
      <note default-x="138">
        <pitch>
          <step>A</step>
          <octave>4</octave>
        </pitch>
        <duration>2</duration>
        <voice>1</voice>
        <type>quarter</type>
        <stem default-y="10">up</stem>
        <lyric number="1" placement="below" default-y="-79">
          <syllabic>end</syllabic>
          <text>less</text>
        </lyric>
      </note>
      <note default-x="184">
        <pitch>
          <step>B</step>
          <octave>4</octave>
        </pitch>
        <duration>2</duration>
        <voice>1</voice>
        <type>quarter</type>
        <stem default-y="-56">down</stem>
        <notations>
          <articulations>
            <staccato placement="below" default-y="-73"></staccato>
          </articulations>
        </notations>
      </note>
    </measure>
    <!--=======================================================-->
    <measure number="24" width="104">
      <note default-x="22">
        <pitch>
          <step>G</step>
          <octave>4</octave>
        </pitch>
        <duration>4</duration>
        <voice>1</voice>
        <type>half</type>
        <stem default-y="6">up</stem>
        <lyric number="1" placement="below" default-y="-78">
          <syllabic>begin</syllabic>
          <text>ﬂow</text>
        </lyric>
      </note>
      <note default-x="62">
        <pitch>
          <step>D</step>
          <octave>4</octave>
        </pitch>
        <duration>2</duration>
        <voice>1</voice>
        <type>quarter</type>
        <stem default-y="-9">up</stem>
        <notations>
          <articulations>
            <staccato placement="below" default-y="-72"></staccato>
            <staccato placement="below" default-y="-73"></staccato>
            <staccato placement="below" default-y="-72"></staccato>
          </articulations>
        </notations>
      </note>
    </measure>
    <!--=======================================================-->
    <measure number="25" width="124">
      <note default-x="22">
        <pitch>
          <step>G</step>
          <octave>4</octave>
        </pitch>
        <duration>4</duration>
        <voice>1</voice>
        <type>half</type>
        <stem default-y="5">up</stem>
        <lyric number="1" placement="below" default-y="-77">
          <syllabic>end</syllabic>
          <text>that</text>
        </lyric>
      </note>
      <note default-x="72">
        <pitch>
          <step>A</step>
          <octave>4</octave>
        </pitch>
        <duration>2</duration>
        <voice>1</voice>
        <type>quarter</type>
        <stem default-y="11">up</stem>
        <lyric number="1" placement="below" default-y="-75">
          <syllabic>single</syllabic>
          <text>Umv</text>
        </lyric>
      </note>
    </measure>
    <!--=======================================================-->
    <measure number="26" width="73">
      <note default-x="25">
        <pitch>
          <step>B</step>
          <octave>4</octave>
        </pitch>
        <duration>6</duration>
        <voice>1</voice>
        <type>half</type>
        <dot/>
        <stem default-y="-56">down</stem>
        <notations>
          <articulations>
            <staccato placement="below" default-y="-71"></staccato>
          </articulations>
        </notations>
      </note>
    </measure>
    <!--=======================================================-->
    <measure number="27" width="137">
      <note default-x="18">
        <pitch>
          <step>A</step>
          <octave>4</octave>
        </pitch>
        <duration>2</duration>
        <voice>1</voice>
        <type>quarter</type>
        <stem default-y="11">up</stem>
      </note>
      <note default-x="58">
        <pitch>
          <step>B</step>
          <octave>4</octave>
        </pitch>
        <duration>2</duration>
        <voice>1</voice>
        <type>quarter</type>
        <stem default-y="-57">down</stem>
        <notations>
          <articulations>
            <staccato placement="below" default-y="-72"></staccato>
            <staccato placement="below" default-y="-70"></staccato>
            <staccato placement="below" default-y="-72"></staccato>
          </articulations>
        </notations>
      </note>
      <note default-x="98">
        <pitch>
          <step>C</step>
          <octave>5</octave>
        </pitch>
        <duration>2</duration>
        <voice>1</voice>
        <type>quarter</type>
        <stem default-y="-51">down</stem>
        <notations>
          <articulations>
            <staccato placement="below" default-y="-73"></staccato>
          </articulations>
        </notations>
      </note>
    </measure>
    <!--=======================================================-->
    <measure number="28" width="108">
      <note default-x="23">
        <pitch>
          <step>B</step>
          <octave>4</octave>
        </pitch>
        <duration>4</duration>
        <voice>1</voice>
        <type>half</type>
        <stem default-y="-57">down</stem>
        <lyric number="2" placement="below" default-y="-79">
          <syllabic>single</syllabic>
          <text>soul</text>
        </lyric>
      </note>
      <note default-x="65">
        <pitch>
          <step>A</step>
          <octave>4</octave>
        </pitch>
        <duration>2</duration>
        <voice>1</voice>
        <type>quarter</type>
        <stem default-y="11">up</stem>
        <lyric number="2" placement="below" default-y="-78">
          <syllabic>single</syllabic>
          <text>is</text>
        </lyric>
      </note>
    </measure>
    <!--=======================================================-->
    <measure number="29" width="65">
      <note default-x="28">
        <pitch>
          <step>G</step>
          <octave>4</octave>
        </pitch>
        <duration>4</duration>
        <voice>1</voice>
        <type>half</type>
        <stem default-y="6">up</stem>
        <lyric number="2" placement="below" default-y="-76">
          <syllabic>single</syllabic>
          <text>gone.</text>
        </lyric>
      </note>
      <note default-x="37">
        <chord/>
        <pitch>
          <step>A</step>
          <octave>4</octave>
        </pitch>
        <duration>4</duration>
        <voice>1</voice>
        <type>half</type>
        <stem default-y="6">up</stem>
        <notations>
          <slur type="start" number="3" placement="below" default-x="13" default-y="-34" bezier-x="9" bezier-y="-6"></slur>
        </notations>
      </note>
    </measure>
    <!--=======================================================-->
    <measure number="30" width="70">
      <note default-x="19">
        <pitch>
          <step>G</step>
          <octave>4</octave>
        </pitch>
        <duration>4</duration>
        <voice>1</voice>
        <type>half</type>
        <stem default-y="6">up</stem>
        <notations>
          <slur type="stop" number="3" default-x="-5" default-y="-35" bezier-x="-9" bezier-y="-5"></slur>
        </notations>
      </note>
      <note default-x="28">
        <chord/>
        <pitch>
          <step>A</step>
          <octave>4</octave>
        </pitch>
        <duration>4</duration>
        <voice>1</voice>
        <type>half</type>
        <stem default-y="6">up</stem>
      </note>
      <barline location="right">
        <bar-style>light-heavy</bar-style>
      </barline>
    </measure>
  </part>
</score-partwise>